<svg xmlns="http://www.w3.org/2000/svg" xmlns:xlink="http://www.w3.org/1999/xlink" width="500" zoomAndPan="magnify" viewBox="0 0 375 374.999991" height="500" preserveAspectRatio="xMidYMid meet" version="1.0"><defs><g/><clipPath id="19bc608ec5"><path d="M 45.167969 45.167969 L 330.167969 45.167969 L 330.167969 330.167969 L 45.167969 330.167969 Z M 45.167969 45.167969 " clip-rule="nonzero"/></clipPath><clipPath id="064bbef7cf"><path d="M 54.109375 120.765625 L 321.109375 120.765625 L 321.109375 137.265625 L 54.109375 137.265625 Z M 54.109375 120.765625 " clip-rule="nonzero"/></clipPath><clipPath id="96dbd1d7ca"><path d="M 54.109375 235.632812 L 321.109375 235.632812 L 321.109375 252.132812 L 54.109375 252.132812 Z M 54.109375 235.632812 " clip-rule="nonzero"/></clipPath><clipPath id="14b5c1f8f0"><path d="M 37.5 37.5 L 337.261719 37.5 L 337.261719 337.261719 L 37.5 337.261719 Z M 37.5 37.5 " clip-rule="nonzero"/></clipPath><clipPath id="f740d37f9f"><path d="M 70.480469 194.769531 L 304.480469 194.769531 L 304.480469 222.519531 L 70.480469 222.519531 Z M 70.480469 194.769531 " clip-rule="nonzero"/></clipPath><clipPath id="9301b0ef61"><path d="M 85 163.707031 L 94 163.707031 L 94 169 L 85 169 Z M 85 163.707031 " clip-rule="nonzero"/></clipPath><clipPath id="94db1b6c05"><path d="M 56 168 L 88 168 L 88 191.457031 L 56 191.457031 Z M 56 168 " clip-rule="nonzero"/></clipPath><clipPath id="563eb71ade"><path d="M 89 168 L 113.230469 168 L 113.230469 171 L 89 171 Z M 89 168 " clip-rule="nonzero"/></clipPath><clipPath id="d6a92973a4"><path d="M 47.980469 185 L 57 185 L 57 191 L 47.980469 191 Z M 47.980469 185 " clip-rule="nonzero"/></clipPath><clipPath id="88dbc31f71"><path d="M 278 163.707031 L 287 163.707031 L 287 169 L 278 169 Z M 278 163.707031 " clip-rule="nonzero"/></clipPath><clipPath id="c4b01b4020"><path d="M 284 168 L 316 168 L 316 191.457031 L 284 191.457031 Z M 284 168 " clip-rule="nonzero"/></clipPath><clipPath id="17bcdf77f8"><path d="M 258.769531 168 L 283 168 L 283 171 L 258.769531 171 Z M 258.769531 168 " clip-rule="nonzero"/></clipPath><clipPath id="5f108bb5e3"><path d="M 315 185 L 323.960938 185 L 323.960938 191 L 315 191 Z M 315 185 " clip-rule="nonzero"/></clipPath></defs><g clip-path="url(#19bc608ec5)"><path fill="#121212" d="M 187.667969 45.167969 C 108.964844 45.167969 45.167969 108.964844 45.167969 187.667969 C 45.167969 266.367188 108.964844 330.167969 187.667969 330.167969 C 266.367188 330.167969 330.167969 266.367188 330.167969 187.667969 C 330.167969 108.964844 266.367188 45.167969 187.667969 45.167969 " fill-opacity="1" fill-rule="nonzero"/></g><g clip-path="url(#064bbef7cf)"><path fill="#ffffff" d="M 54.1875 120.765625 L 321.035156 120.765625 L 321.035156 137.265625 L 54.1875 137.265625 L 54.1875 120.765625 " fill-opacity="1" fill-rule="nonzero"/></g><g clip-path="url(#96dbd1d7ca)"><path fill="#ffffff" d="M 54.1875 235.632812 L 321.035156 235.632812 L 321.035156 252.132812 L 54.1875 252.132812 L 54.1875 235.632812 " fill-opacity="1" fill-rule="nonzero"/></g><g clip-path="url(#14b5c1f8f0)"><path fill="#4d4d4d" d="M 187.378906 337.261719 C 147.363281 337.261719 109.683594 321.683594 81.410156 293.351562 C 53.074219 265.074219 37.5 227.394531 37.5 187.378906 C 37.5 147.363281 53.074219 109.683594 81.410156 81.410156 C 109.683594 53.074219 147.363281 37.5 187.378906 37.5 C 227.394531 37.5 265.074219 53.074219 293.351562 81.410156 C 321.683594 109.746094 337.261719 147.363281 337.261719 187.378906 C 337.261719 227.394531 321.683594 265.074219 293.351562 293.351562 C 265.074219 321.683594 227.394531 337.261719 187.378906 337.261719 Z M 187.378906 46.484375 C 149.761719 46.484375 114.355469 61.164062 87.757812 87.757812 C 61.164062 114.355469 46.484375 149.761719 46.484375 187.378906 C 46.484375 225 61.164062 260.402344 87.757812 287 C 114.355469 313.597656 149.761719 328.273438 187.378906 328.273438 C 225 328.273438 260.402344 313.597656 287 287 C 313.597656 260.402344 328.273438 225 328.273438 187.378906 C 328.273438 149.761719 313.597656 114.355469 287 87.757812 C 260.402344 61.164062 225 46.484375 187.378906 46.484375 Z M 187.378906 46.484375 " fill-opacity="1" fill-rule="nonzero"/></g><g clip-path="url(#f740d37f9f)"><path fill="#ffffff" d="M 300.183594 196.144531 C 291.601562 195.261719 282.984375 194.820312 274.34375 194.820312 L 198.246094 194.820312 L 198.246094 198.363281 C 198.144531 198.996094 197.984375 199.609375 197.769531 200.210938 C 197.554688 200.8125 197.292969 201.394531 196.976562 201.949219 C 196.660156 202.503906 196.300781 203.027344 195.890625 203.519531 C 195.484375 204.011719 195.035156 204.460938 194.546875 204.875 C 194.0625 205.289062 193.539062 205.65625 192.988281 205.976562 C 192.4375 206.296875 191.859375 206.566406 191.261719 206.789062 C 190.660156 207.007812 190.046875 207.171875 189.414062 207.285156 C 188.785156 207.394531 188.152344 207.453125 187.511719 207.453125 C 186.875 207.453125 186.238281 207.394531 185.609375 207.285156 C 184.980469 207.171875 184.367188 207.007812 183.765625 206.789062 C 183.167969 206.566406 182.589844 206.296875 182.039062 205.976562 C 181.484375 205.65625 180.964844 205.289062 180.476562 204.875 C 179.992188 204.460938 179.542969 204.011719 179.132812 203.519531 C 178.726562 203.027344 178.363281 202.503906 178.050781 201.949219 C 177.734375 201.394531 177.46875 200.8125 177.257812 200.210938 C 177.042969 199.609375 176.882812 198.996094 176.777344 198.363281 L 176.777344 194.820312 L 100.683594 194.820312 C 92.046875 194.820312 83.433594 195.261719 74.839844 196.144531 L 70.488281 196.59375 L 74.839844 197.039062 C 83.433594 197.917969 92.046875 198.355469 100.683594 198.347656 L 131.300781 198.347656 L 131.300781 201.128906 L 134.195312 201.128906 C 134.425781 201.953125 134.75 202.742188 135.175781 203.484375 L 133.128906 205.53125 L 137.054688 209.453125 L 139.101562 207.410156 C 139.847656 207.835938 140.636719 208.164062 141.460938 208.390625 L 141.460938 211.28125 L 147.027344 211.28125 L 147.027344 208.390625 C 147.855469 208.164062 148.644531 207.835938 149.386719 207.410156 L 151.433594 209.453125 L 155.363281 205.53125 L 153.3125 203.484375 C 153.738281 202.742188 154.066406 201.953125 154.296875 201.128906 L 157.1875 201.128906 L 157.1875 198.347656 L 161.597656 198.347656 L 161.597656 202.136719 L 167.386719 202.136719 C 167.84375 203.789062 168.5 205.359375 169.351562 206.851562 L 165.253906 210.953125 L 173.109375 218.820312 L 177.203125 214.726562 C 178.695312 215.578125 180.269531 216.230469 181.925781 216.691406 L 181.925781 222.472656 L 193.054688 222.472656 L 193.054688 216.683594 C 194.710938 216.222656 196.285156 215.570312 197.777344 214.722656 L 201.871094 218.8125 L 209.726562 210.949219 L 205.632812 206.859375 C 206.484375 205.371094 207.140625 203.800781 207.597656 202.144531 L 213.386719 202.144531 L 213.386719 198.363281 L 217.792969 198.363281 L 217.792969 201.144531 L 220.6875 201.144531 C 220.917969 201.972656 221.246094 202.757812 221.671875 203.503906 L 219.621094 205.546875 L 223.550781 209.46875 L 225.59375 207.425781 C 226.339844 207.851562 227.128906 208.179688 227.957031 208.40625 L 227.957031 211.296875 L 233.519531 211.296875 L 233.519531 208.40625 C 234.347656 208.179688 235.136719 207.851562 235.882812 207.425781 L 237.925781 209.46875 L 241.855469 205.546875 L 239.804688 203.503906 C 240.230469 202.757812 240.558594 201.972656 240.789062 201.144531 L 243.683594 201.144531 L 243.683594 198.363281 L 274.300781 198.363281 C 282.9375 198.371094 291.550781 197.933594 300.144531 197.058594 L 304.496094 196.609375 Z M 144.253906 203.800781 C 143.894531 203.800781 143.539062 203.765625 143.191406 203.695312 C 142.839844 203.625 142.5 203.523438 142.167969 203.386719 C 141.839844 203.25 141.527344 203.082031 141.230469 202.882812 C 140.933594 202.6875 140.65625 202.460938 140.40625 202.207031 C 140.152344 201.957031 139.925781 201.679688 139.726562 201.382812 C 139.53125 201.085938 139.363281 200.773438 139.226562 200.445312 C 139.089844 200.117188 138.984375 199.777344 138.914062 199.425781 C 138.847656 199.074219 138.8125 198.722656 138.8125 198.363281 L 149.691406 198.363281 C 149.691406 198.722656 149.65625 199.074219 149.589844 199.425781 C 149.519531 199.777344 149.414062 200.117188 149.277344 200.445312 C 149.140625 200.773438 148.972656 201.085938 148.777344 201.382812 C 148.578125 201.679688 148.351562 201.957031 148.097656 202.207031 C 147.847656 202.460938 147.570312 202.6875 147.273438 202.882812 C 146.976562 203.082031 146.664062 203.25 146.335938 203.386719 C 146.003906 203.523438 145.664062 203.625 145.3125 203.695312 C 144.964844 203.765625 144.609375 203.800781 144.253906 203.800781 Z M 230.773438 203.800781 C 230.417969 203.800781 230.0625 203.765625 229.714844 203.695312 C 229.363281 203.625 229.023438 203.523438 228.691406 203.386719 C 228.363281 203.25 228.046875 203.082031 227.75 202.882812 C 227.453125 202.6875 227.179688 202.460938 226.925781 202.207031 C 226.675781 201.957031 226.449219 201.679688 226.25 201.382812 C 226.050781 201.085938 225.882812 200.773438 225.746094 200.445312 C 225.609375 200.117188 225.507812 199.777344 225.4375 199.425781 C 225.367188 199.074219 225.332031 198.722656 225.332031 198.363281 L 236.214844 198.363281 C 236.214844 198.722656 236.179688 199.074219 236.109375 199.425781 C 236.039062 199.777344 235.9375 200.117188 235.800781 200.445312 C 235.664062 200.773438 235.496094 201.085938 235.296875 201.382812 C 235.101562 201.679688 234.875 201.957031 234.621094 202.207031 C 234.367188 202.460938 234.09375 202.6875 233.796875 202.882812 C 233.5 203.082031 233.1875 203.25 232.855469 203.386719 C 232.527344 203.523438 232.1875 203.625 231.835938 203.695312 C 231.484375 203.765625 231.132812 203.800781 230.773438 203.800781 Z M 230.773438 203.800781 " fill-opacity="1" fill-rule="nonzero"/></g><g clip-path="url(#9301b0ef61)"><path fill="#ffffff" d="M 87.886719 167.609375 C 89.425781 166.808594 90.914062 165.929688 92.347656 164.960938 C 92.871094 164.625 93.339844 164.226562 93.734375 163.734375 C 92.921875 163.8125 92.207031 164.1875 91.5 164.546875 C 89.765625 165.453125 88.070312 166.421875 86.476562 167.554688 C 86.097656 167.828125 85.773438 168.148438 85.472656 168.5 C 86.332031 168.410156 87.117188 167.996094 87.886719 167.609375 Z M 87.886719 167.609375 " fill-opacity="1" fill-rule="nonzero"/></g><path fill="#ffffff" d="M 85.472656 168.433594 C 84.949219 167.957031 84.035156 167.851562 83.371094 168.046875 C 82.628906 168.394531 82.339844 169.46875 82.472656 170.175781 C 83.539062 169.75 84.570312 169.144531 85.472656 168.433594 Z M 85.472656 168.433594 " fill-opacity="1" fill-rule="nonzero"/><g clip-path="url(#94db1b6c05)"><path fill="#ffffff" d="M 82.484375 183.925781 C 82.589844 183.125 81.792969 182.492188 81.9375 181.691406 C 81.976562 181.40625 82.117188 181.136719 82.25 180.878906 C 83.515625 178.4375 84.808594 176.011719 86.046875 173.558594 C 86.359375 172.757812 87.46875 172.628906 87.664062 171.75 C 87.992188 170.847656 87.285156 170.0625 86.882812 169.324219 C 86.726562 169.015625 86.371094 168.574219 85.996094 168.847656 C 84.847656 169.46875 83.710938 170.136719 82.601562 170.808594 C 82.25 170.976562 82.378906 171.417969 82.535156 171.660156 C 83.03125 172.539062 83.566406 173.390625 84.074219 174.257812 C 82.367188 176.398438 80.667969 178.542969 78.960938 180.660156 C 75.265625 180.128906 71.429688 182.390625 70.035156 185.796875 C 67.371094 186.183594 64.722656 186.636719 62.058594 187.050781 C 61.355469 186.054688 60.9375 184.828125 60.050781 183.976562 C 58.640625 184.542969 57.386719 185.449219 56.070312 186.195312 C 56.214844 187.125 56.773438 188.015625 57.46875 188.648438 C 58.289062 189.308594 59.269531 188.664062 60.078125 188.390625 C 62.910156 188.46875 65.742188 188.597656 68.574219 188.664062 C 68.925781 188.6875 69.277344 188.703125 69.589844 188.855469 C 70.308594 189.230469 70.464844 190.238281 71.285156 190.484375 C 72.175781 190.714844 72.945312 190.070312 73.675781 189.667969 C 74.433594 190.300781 75.226562 191.285156 76.335938 190.820312 C 77.25 191.285156 78.453125 191.425781 79.300781 190.742188 C 80.03125 190.238281 80.265625 189.332031 80.304688 188.496094 C 81.296875 187.8125 80.722656 186.570312 80.589844 185.628906 C 81.324219 185.242188 82.289062 184.839844 82.484375 183.925781 Z M 79.195312 189 C 79.117188 190.058594 77.640625 190.613281 76.886719 189.851562 C 76.089844 189.203125 76.375 187.847656 77.328125 187.527344 C 78.253906 187.152344 79.363281 188.003906 79.195312 189 Z M 79.195312 189 " fill-opacity="1" fill-rule="nonzero"/></g><path fill="#ffffff" d="M 82.523438 170.242188 C 81.636719 170.34375 80.851562 170.785156 80.070312 171.183594 C 78.347656 172.085938 76.652344 173.070312 75.085938 174.21875 C 74.757812 174.4375 74.496094 174.734375 74.273438 175.054688 C 75.90625 174.695312 77.316406 173.765625 78.765625 172.964844 C 80.070312 172.140625 81.519531 171.441406 82.523438 170.242188 Z M 82.523438 170.242188 " fill-opacity="1" fill-rule="nonzero"/><path fill="#ffffff" d="M 61.539062 182.90625 C 63.207031 182.027344 64.851562 181.070312 66.40625 179.988281 C 66.796875 179.714844 67.148438 179.382812 67.449219 179.007812 C 66.5625 179.097656 65.78125 179.535156 64.996094 179.921875 C 63.40625 180.75 61.851562 181.652344 60.390625 182.6875 C 59.945312 182.984375 59.542969 183.34375 59.214844 183.769531 C 60.050781 183.667969 60.808594 183.28125 61.539062 182.90625 Z M 61.539062 182.90625 " fill-opacity="1" fill-rule="nonzero"/><path fill="#ffffff" d="M 59.242188 183.679688 C 58.640625 183.332031 57.882812 183.136719 57.191406 183.265625 C 56.292969 183.5625 56.265625 184.648438 56.003906 185.398438 C 56.121094 185.382812 56.371094 185.359375 56.488281 185.34375 C 57.441406 184.855469 58.40625 184.351562 59.242188 183.679688 Z M 59.242188 183.679688 " fill-opacity="1" fill-rule="nonzero"/><g clip-path="url(#563eb71ade)"><path fill="#ffffff" d="M 89.738281 170.203125 C 90 170.589844 90.484375 170.460938 90.875 170.472656 L 113.230469 169.6875 L 90.40625 168.730469 C 90.144531 169.207031 89.855469 169.671875 89.738281 170.203125 Z M 89.738281 170.203125 " fill-opacity="1" fill-rule="nonzero"/></g><path fill="#ffffff" d="M 89.296875 173.351562 C 89.558594 173.738281 90.039062 173.609375 90.429688 173.625 L 112.785156 172.835938 L 89.960938 171.882812 C 89.699219 172.359375 89.414062 172.824219 89.296875 173.351562 Z M 89.296875 173.351562 " fill-opacity="1" fill-rule="nonzero"/><path fill="#ffffff" d="M 83.933594 182.867188 C 84.191406 183.253906 84.675781 183.125 85.066406 183.136719 L 107.421875 182.351562 L 84.597656 181.394531 C 84.335938 181.871094 84.050781 182.335938 83.933594 182.867188 Z M 83.933594 182.867188 " fill-opacity="1" fill-rule="nonzero"/><path fill="#ffffff" d="M 85.339844 179.703125 C 85.601562 180.089844 86.085938 179.960938 86.476562 179.976562 L 108.832031 179.1875 L 86.007812 178.230469 C 85.746094 178.695312 85.460938 179.175781 85.339844 179.703125 Z M 85.339844 179.703125 " fill-opacity="1" fill-rule="nonzero"/><path fill="#ffffff" d="M 83.488281 186.054688 C 83.75 186.441406 84.234375 186.3125 84.625 186.324219 L 106.980469 185.539062 L 84.140625 184.582031 C 83.878906 185.0625 83.59375 185.527344 83.488281 186.054688 Z M 83.488281 186.054688 " fill-opacity="1" fill-rule="nonzero"/><path fill="#ffffff" d="M 87.128906 176.566406 C 87.390625 176.953125 87.875 176.824219 88.265625 176.839844 L 110.621094 176.050781 L 87.796875 175.09375 C 87.535156 175.574219 87.246094 176.039062 87.128906 176.566406 Z M 87.128906 176.566406 " fill-opacity="1" fill-rule="nonzero"/><g clip-path="url(#d6a92973a4)"><path fill="#ffffff" d="M 54.320312 186.171875 C 52.808594 186.921875 51.347656 187.773438 49.925781 188.6875 C 49.21875 189.167969 48.5 189.617188 47.980469 190.289062 C 48.683594 190.226562 49.324219 189.914062 49.949219 189.617188 C 51.359375 188.90625 52.730469 188.121094 54.074219 187.269531 C 54.84375 186.765625 55.625 186.261719 56.242188 185.566406 C 55.535156 185.539062 54.921875 185.898438 54.320312 186.171875 Z M 54.320312 186.171875 " fill-opacity="1" fill-rule="nonzero"/></g><path fill="#ffffff" d="M 82.863281 187.707031 C 82.574219 188.261719 82.15625 188.816406 82.3125 189.464844 C 90.339844 189.242188 98.367188 188.816406 106.40625 188.675781 C 105.871094 188.585938 105.335938 188.507812 104.800781 188.496094 C 97.492188 188.25 90.183594 187.941406 82.863281 187.707031 Z M 82.863281 187.707031 " fill-opacity="1" fill-rule="nonzero"/><g fill="#ffffff" fill-opacity="1"><g transform="translate(117.527289, 191.626276)"><g><path d="M 1.800781 -0.574219 C 1.800781 -0.179688 1.980469 0 2.375 0 L 11.015625 0 C 14.398438 0 16.199219 -1.800781 16.199219 -5.183594 L 16.199219 -23.578125 C 16.199219 -26.964844 14.398438 -28.800781 11.015625 -28.800781 L 2.375 -28.800781 C 1.980469 -28.800781 1.800781 -28.585938 1.800781 -28.222656 Z M 6.695312 -4.753906 L 6.695312 -24.046875 L 10.007812 -24.046875 C 10.945312 -24.046875 11.449219 -23.542969 11.449219 -22.570312 L 11.449219 -6.191406 C 11.449219 -5.21875 10.945312 -4.753906 10.007812 -4.753906 Z M 6.695312 -4.753906 "/></g></g></g><g fill="#ffffff" fill-opacity="1"><g transform="translate(159.17932, 191.626276)"><g><path d="M 16.597656 -23.617188 C 16.597656 -27 14.796875 -28.800781 11.410156 -28.800781 L 2.375 -28.800781 C 2.015625 -28.800781 1.800781 -28.585938 1.800781 -28.222656 L 1.800781 -0.574219 C 1.800781 -0.214844 2.015625 0 2.375 0 L 6.121094 0 C 6.480469 0 6.695312 -0.214844 6.695312 -0.574219 L 6.695312 -9.648438 L 9.179688 -9.648438 L 11.59375 -0.503906 C 11.664062 -0.179688 11.84375 0 12.203125 0 L 15.949219 0 C 16.34375 0 16.558594 -0.214844 16.453125 -0.648438 L 13.96875 -10.078125 C 15.695312 -10.835938 16.597656 -12.421875 16.597656 -14.832031 Z M 6.695312 -14.398438 L 6.695312 -24.046875 L 10.261719 -24.046875 C 11.195312 -24.046875 11.699219 -23.542969 11.699219 -22.609375 L 11.699219 -15.839844 C 11.699219 -14.902344 11.195312 -14.398438 10.261719 -14.398438 Z M 6.695312 -14.398438 "/></g></g></g><g fill="#ffffff" fill-opacity="1"><g transform="translate(201.227351, 191.626276)"><g><path d="M 19.152344 0 C 19.585938 0 19.726562 -0.214844 19.65625 -0.613281 L 13.679688 -28.296875 C 13.609375 -28.65625 13.390625 -28.800781 13.066406 -28.800781 L 8.0625 -28.800781 C 7.738281 -28.800781 7.523438 -28.65625 7.453125 -28.296875 L 1.476562 -0.613281 C 1.367188 -0.214844 1.546875 0 1.945312 0 L 5.796875 0 C 6.121094 0 6.300781 -0.179688 6.371094 -0.503906 L 7.34375 -5.761719 L 13.753906 -5.761719 L 14.761719 -0.503906 C 14.832031 -0.179688 15.011719 0 15.335938 0 Z M 12.851562 -9.9375 L 8.242188 -9.9375 L 10.546875 -22.5 Z M 12.851562 -9.9375 "/></g></g></g><g fill="#ffffff" fill-opacity="1"><g transform="translate(245.975389, 191.626276)"><g><path d="M 2.375 -28.800781 C 1.980469 -28.800781 1.800781 -28.585938 1.800781 -28.222656 L 1.800781 -0.574219 C 1.800781 -0.214844 1.980469 0 2.375 0 L 6.121094 0 C 6.480469 0 6.695312 -0.214844 6.695312 -0.574219 L 6.695312 -28.222656 C 6.695312 -28.585938 6.480469 -28.800781 6.121094 -28.800781 Z M 2.375 -28.800781 "/></g></g></g><g clip-path="url(#88dbc31f71)"><path fill="#ffffff" d="M 284.113281 167.609375 C 282.570312 166.808594 281.082031 165.929688 279.648438 164.960938 C 279.125 164.625 278.65625 164.226562 278.265625 163.734375 C 279.074219 163.8125 279.792969 164.1875 280.496094 164.546875 C 282.230469 165.453125 283.929688 166.421875 285.519531 167.554688 C 285.898438 167.828125 286.226562 168.148438 286.527344 168.5 C 285.664062 168.410156 284.882812 167.996094 284.113281 167.609375 Z M 284.113281 167.609375 " fill-opacity="1" fill-rule="nonzero"/></g><path fill="#ffffff" d="M 286.527344 168.433594 C 287.046875 167.957031 287.960938 167.851562 288.625 168.046875 C 289.371094 168.394531 289.65625 169.46875 289.527344 170.175781 C 288.457031 169.75 287.425781 169.144531 286.527344 168.433594 Z M 286.527344 168.433594 " fill-opacity="1" fill-rule="nonzero"/><g clip-path="url(#c4b01b4020)"><path fill="#ffffff" d="M 289.515625 183.925781 C 289.410156 183.125 290.207031 182.492188 290.0625 181.691406 C 290.023438 181.40625 289.878906 181.136719 289.75 180.878906 C 288.484375 178.4375 287.191406 176.011719 285.953125 173.558594 C 285.636719 172.757812 284.527344 172.628906 284.332031 171.75 C 284.007812 170.847656 284.710938 170.0625 285.117188 169.324219 C 285.273438 169.015625 285.625 168.574219 286.003906 168.847656 C 287.152344 169.46875 288.289062 170.136719 289.398438 170.808594 C 289.75 170.976562 289.617188 171.417969 289.460938 171.660156 C 288.964844 172.539062 288.429688 173.390625 287.921875 174.257812 C 289.632812 176.398438 291.328125 178.542969 293.039062 180.660156 C 296.730469 180.128906 300.566406 182.390625 301.964844 185.796875 C 304.625 186.183594 307.273438 186.636719 309.9375 187.050781 C 310.640625 186.054688 311.058594 184.828125 311.945312 183.976562 C 313.355469 184.542969 314.609375 185.449219 315.925781 186.195312 C 315.785156 187.125 315.222656 188.015625 314.53125 188.648438 C 313.707031 189.308594 312.730469 188.664062 311.921875 188.390625 C 309.089844 188.46875 306.257812 188.597656 303.425781 188.664062 C 303.074219 188.6875 302.722656 188.703125 302.40625 188.855469 C 301.691406 189.230469 301.535156 190.238281 300.710938 190.484375 C 299.824219 190.714844 299.054688 190.070312 298.324219 189.667969 C 297.566406 190.300781 296.769531 191.285156 295.660156 190.820312 C 294.746094 191.285156 293.546875 191.425781 292.699219 190.742188 C 291.96875 190.238281 291.734375 189.332031 291.695312 188.496094 C 290.703125 187.8125 291.277344 186.570312 291.40625 185.628906 C 290.675781 185.242188 289.710938 184.839844 289.515625 183.925781 Z M 292.804688 189 C 292.882812 190.058594 294.355469 190.613281 295.113281 189.851562 C 295.910156 189.203125 295.621094 187.847656 294.667969 187.527344 C 293.742188 187.152344 292.632812 188.003906 292.804688 189 Z M 292.804688 189 " fill-opacity="1" fill-rule="nonzero"/></g><path fill="#ffffff" d="M 289.476562 170.242188 C 290.363281 170.34375 291.144531 170.785156 291.929688 171.183594 C 293.652344 172.085938 295.347656 173.070312 296.914062 174.21875 C 297.238281 174.4375 297.5 174.734375 297.722656 175.054688 C 296.089844 174.695312 294.683594 173.765625 293.234375 172.964844 C 291.929688 172.140625 290.480469 171.441406 289.476562 170.242188 Z M 289.476562 170.242188 " fill-opacity="1" fill-rule="nonzero"/><path fill="#ffffff" d="M 310.460938 182.90625 C 308.789062 182.027344 307.144531 181.070312 305.59375 179.988281 C 305.199219 179.714844 304.847656 179.382812 304.546875 179.007812 C 305.433594 179.097656 306.21875 179.535156 307 179.921875 C 308.59375 180.75 310.144531 181.652344 311.609375 182.6875 C 312.050781 182.984375 312.457031 183.34375 312.78125 183.769531 C 311.945312 183.667969 311.191406 183.28125 310.460938 182.90625 Z M 310.460938 182.90625 " fill-opacity="1" fill-rule="nonzero"/><path fill="#ffffff" d="M 312.757812 183.679688 C 313.355469 183.332031 314.113281 183.136719 314.804688 183.265625 C 315.707031 183.5625 315.730469 184.648438 315.992188 185.398438 C 315.875 185.382812 315.628906 185.359375 315.511719 185.34375 C 314.558594 184.855469 313.589844 184.351562 312.757812 183.679688 Z M 312.757812 183.679688 " fill-opacity="1" fill-rule="nonzero"/><g clip-path="url(#17bcdf77f8)"><path fill="#ffffff" d="M 282.257812 170.203125 C 281.996094 170.589844 281.515625 170.460938 281.125 170.472656 L 258.769531 169.6875 L 281.59375 168.730469 C 281.855469 169.207031 282.140625 169.671875 282.257812 170.203125 Z M 282.257812 170.203125 " fill-opacity="1" fill-rule="nonzero"/></g><path fill="#ffffff" d="M 282.703125 173.351562 C 282.441406 173.738281 281.957031 173.609375 281.566406 173.625 L 259.210938 172.835938 L 282.035156 171.882812 C 282.296875 172.359375 282.585938 172.824219 282.703125 173.351562 Z M 282.703125 173.351562 " fill-opacity="1" fill-rule="nonzero"/><path fill="#ffffff" d="M 288.066406 182.867188 C 287.804688 183.253906 287.320312 183.125 286.929688 183.136719 L 264.574219 182.351562 L 287.398438 181.394531 C 287.660156 181.871094 287.949219 182.335938 288.066406 182.867188 Z M 288.066406 182.867188 " fill-opacity="1" fill-rule="nonzero"/><path fill="#ffffff" d="M 286.65625 179.703125 C 286.394531 180.089844 285.914062 179.960938 285.519531 179.976562 L 263.167969 179.1875 L 285.992188 178.230469 C 286.25 178.695312 286.539062 179.175781 286.65625 179.703125 Z M 286.65625 179.703125 " fill-opacity="1" fill-rule="nonzero"/><path fill="#ffffff" d="M 288.507812 186.054688 C 288.25 186.441406 287.765625 186.3125 287.375 186.324219 L 265.019531 185.539062 L 287.855469 184.582031 C 288.117188 185.0625 288.40625 185.527344 288.507812 186.054688 Z M 288.507812 186.054688 " fill-opacity="1" fill-rule="nonzero"/><path fill="#ffffff" d="M 284.867188 176.566406 C 284.605469 176.953125 284.125 176.824219 283.734375 176.839844 L 261.378906 176.050781 L 284.203125 175.09375 C 284.464844 175.574219 284.75 176.039062 284.867188 176.566406 Z M 284.867188 176.566406 " fill-opacity="1" fill-rule="nonzero"/><g clip-path="url(#5f108bb5e3)"><path fill="#ffffff" d="M 317.675781 186.171875 C 319.191406 186.921875 320.652344 187.773438 322.074219 188.6875 C 322.777344 189.167969 323.496094 189.617188 324.019531 190.289062 C 323.3125 190.226562 322.675781 189.914062 322.046875 189.617188 C 320.636719 188.90625 319.269531 188.121094 317.925781 187.269531 C 317.152344 186.765625 316.371094 186.261719 315.757812 185.566406 C 316.460938 185.539062 317.074219 185.898438 317.675781 186.171875 Z M 317.675781 186.171875 " fill-opacity="1" fill-rule="nonzero"/></g><path fill="#ffffff" d="M 289.136719 187.707031 C 289.421875 188.261719 289.839844 188.816406 289.683594 189.464844 C 281.65625 189.242188 273.632812 188.816406 265.59375 188.675781 C 266.128906 188.585938 266.664062 188.507812 267.199219 188.496094 C 274.507812 188.25 281.816406 187.941406 289.136719 187.707031 Z M 289.136719 187.707031 " fill-opacity="1" fill-rule="nonzero"/></svg>